#!OML:ASF F:\VICON\USERDATA\INSTALL\rory7\rory7.ASF
:FULLY-SPECIFIED
:DEGREES
399
root 2.04587 27.848 0.698673 -169.164 -12.3238 169.146
lowerback 31.1723 -1.30585 -3.38764
upperback 4.38701 -4.58461 -3.6519
thorax -11.421 -2.5453 -0.237207
lowerneck -16.8428 -2.00991 -6.99942
upperneck 1.42495 -1.97369 5.98385
head 3.22587 -0.879773 2.81412
rclavicle 6.55989e-015 9.54166e-015
rhumerus -3.38241 7.61893 -77.2451
rradius 117.552
rwrist -3.39685
rhand -36.2972 -8.08241
rfingers 7.12502
rthumb -9.39655 -37.853
lclavicle 6.55989e-015 9.54166e-015
lhumerus -6.86354 -11.8397 76.597
lradius 81.458
lwrist 14.2032
lhand -26.2096 5.07824
lfingers 7.12502
lthumb 0.343263 35.0577
rfemur -39.5662 5.54317 15.3138
rtibia 59.5292
rfoot -27.6206 -15.6178
rtoes 1.67812
lfemur -70.3397 28.7404 -37.3454
ltibia 108.248
lfoot -12.8164 -1.71188
ltoes -12.2641
400
root 2.05899 27.9177 0.694199 -169.154 -12.5115 169.109
lowerback 31.1606 -1.30843 -3.36534
upperback 4.34509 -4.57812 -3.69314
thorax -11.4688 -2.53857 -0.29485
lowerneck -16.5739 -2.06657 -6.98863
upperneck 1.05769 -2.07717 6.09577
head 3.08106 -0.934812 2.84011
rclavicle 1.32192e-014 1.48095e-014
rhumerus -3.8015 7.43558 -77.3069
rradius 117.314
rwrist -3.54286
rhand -36.4751 -7.77408
rfingers 7.12502
rthumb -9.56819 -37.5368
lclavicle 1.32192e-014 1.48095e-014
lhumerus -6.69457 -12.1315 76.6492
lradius 80.7547
lwrist 14.0338
lhand -26.5165 4.85627
lfingers 7.12502
lthumb 0.0468572 34.836
rfemur -39.0421 5.63005 15.2839
rtibia 58.6786
rfoot -27.125 -15.712
rtoes 2.30085
lfemur -71.2395 28.6326 -37.5122
ltibia 109.106
lfoot -13.7831 -0.81591
ltoes -16.4037
401
root 2.07561 27.9846 0.687914 -169.18 -12.7523 169.053
lowerback 31.2205 -1.31768 -3.41699
upperback 4.28594 -4.6015 -3.6817
thorax -11.5553 -2.53983 -0.242848
lowerneck -16.3798 -2.10391 -6.96927
upperneck 0.823919 -2.14123 6.07511
head 2.98371 -0.973158 2.82654
rclavicle 4.99943e-014 3.20043e-014
rhumerus -4.32881 7.32276 -77.4107
rradius 117.116
rwrist -3.44814
rhand -36.546 -7.4374
rfingers 7.12502
rthumb -9.6366 -37.197
lclavicle 4.99943e-014 3.20043e-014
lhumerus -6.50444 -12.3998 76.7207
lradius 79.9508
lwrist 13.8844
lhand -26.7683 4.72465
lfingers 7.12502
lthumb -0.196288 34.7043
rfemur -38.4617 5.76594 15.25
rtibia 57.812
rfoot -26.6263 -15.9554
rtoes 3.20601
lfemur -72.0728 28.4725 -37.6405
ltibia 109.894
lfoot -14.1401 -2.52251
ltoes -14.7494
402
root 2.09271 28.047 0.680105 -169.201 -13.0648 169.189
lowerback 31.1943 -1.38131 -3.28769
upperback 4.27034 -4.61386 -3.60354
thorax -11.5636 -2.54324 -0.225637
lowerneck -16.4111 -2.18272 -7.03067
upperneck 0.788974 -2.23557 6.09879
head 2.98481 -1.02027 2.83657
rclavicle -4.94974e-014 -2.0773e-014
rhumerus -4.76569 7.27855 -77.5336
rradius 116.869
rwrist -3.24869
rhand -36.7271 -6.96883
rfingers 7.12502
rthumb -9.81135 -36.7203
lclavicle -4.94974e-014 -2.0773e-014
lhumerus -6.22807 -12.6347 76.8112
lradius 79.1909
lwrist 13.8435
lhand -27.0486 4.54111
lfingers 7.12502
lthumb -0.467067 34.5203
rfemur -37.898 5.89863 15.4442
rtibia 56.9244
rfoot -26.1981 -16.3028
rtoes 3.75297
lfemur -72.993 28.263 -37.5823
ltibia 110.608
lfoot -14.5541 -3.17847
ltoes -15.1155
403
root 2.10598 28.1108 0.670745 -169.339 -13.2336 169.347
lowerback 31.2199 -1.37258 -3.17936
upperback 4.30574 -4.55374 -3.52101
thorax -11.5346 -2.51934 -0.218748
lowerneck -16.6063 -2.27831 -7.12796
upperneck 0.877663 -2.33109 6.03262
head 3.04724 -1.06929 2.82338
rclavicle -2.56929e-014 -4.67144e-015
rhumerus -5.00866 7.20753 -77.4864
rradius 116.532
rwrist -3.10981
rhand -36.7715 -6.56789
rfingers 7.12502
rthumb -9.85424 -36.3173
lclavicle -2.56929e-014 -4.67144e-015
lhumerus -6.08367 -12.8691 76.9324
lradius 78.6012
lwrist 13.6427
lhand -27.3794 4.42717
lfingers 7.12502
lthumb -0.786527 34.4055
rfemur -37.205 6.13889 15.6385
rtibia 55.9992
rfoot -25.7415 -16.6164
rtoes 3.91614
lfemur -73.7656 28.2721 -37.5197
ltibia 111.231
lfoot -15.0586 -4.5146
ltoes -15.6603
404
root 2.11358 28.1783 0.665904 -169.486 -13.621 169.305
lowerback 31.4022 -1.48002 -3.02859
upperback 4.32085 -4.65219 -3.50748
thorax -11.6043 -2.5691 -0.240457
lowerneck -16.6679 -2.34716 -7.27531
upperneck 0.881501 -2.3945 6.08685
head 3.06425 -1.09908 2.85876
rclavicle 4.02539e-014 3.91606e-014
rhumerus -5.2388 7.33119 -77.4586
rradius 116.251
rwrist -3.19287
rhand -36.9817 -7.26963
rfingers 7.12502
rthumb -10.057 -37.0093
lclavicle 4.02539e-014 3.91606e-014
lhumerus -6.00552 -13.0778 77.0439
lradius 78.0581
lwrist 13.5294
lhand -27.7381 4.49864
lfingers 7.12502
lthumb -1.13292 34.4754
rfemur -36.411 6.1063 15.6403
rtibia 55.0784
rfoot -25.3675 -16.8398
rtoes 3.91531
lfemur -74.3394 27.9178 -37.6429
ltibia 111.669
lfoot -15.4852 -6.18737
ltoes -15.1417
405
root 2.11581 28.2474 0.664456 -169.69 -14.2666 169.22
lowerback 31.6734 -1.73162 -2.69761
upperback 4.37439 -4.89404 -3.55617
thorax -11.689 -2.69526 -0.365841
lowerneck -16.6289 -2.34337 -7.14857
upperneck 0.718247 -2.41275 5.94654
head 3.00557 -1.11808 2.79372
rclavicle 3.98563e-014 -1.78906e-014
rhumerus -5.50997 7.71112 -77.5956
rradius 116.109
rwrist -3.7482
rhand -37.9587 -8.65387
rfingers 7.12502
rthumb -10.9994 -38.3457
lclavicle 3.98563e-014 -1.78906e-014
lhumerus -5.79543 -13.3161 77.0667
lradius 77.3509
lwrist 13.4949
lhand -28.0822 4.58408
lfingers 7.12502
lthumb -1.46526 34.5588
rfemur -35.5076 5.81617 15.6351
rtibia 54.1819
rfoot -25.1028 -17.0753
rtoes 4.07886
lfemur -74.6665 27.1858 -37.7002
ltibia 111.946
lfoot -15.7604 -6.99971
ltoes -15.8115
406
root 2.12292 28.3135 0.66271 -169.78 -14.6773 169.15
lowerback 31.7269 -1.86449 -2.53945
upperback 4.42366 -5.02196 -3.58962
thorax -11.6728 -2.7632 -0.43555
lowerneck -16.7706 -2.31275 -7.16476
upperneck 0.679865 -2.37004 5.99909
head 3.01353 -1.09602 2.81527
rclavicle 7.32025e-014 6.54995e-014
rhumerus -5.81608 7.85414 -77.6827
rradius 115.893
rwrist -3.87162
rhand -38.4395 -9.24094
rfingers 7.12502
rthumb -11.4631 -38.9075
lclavicle 7.32025e-014 6.54995e-014
lhumerus -5.52505 -13.5189 77.118
lradius 76.6248
lwrist 13.4624
lhand -28.3726 4.50595
lfingers 7.12502
lthumb -1.74574 34.4786
rfemur -34.8575 5.78747 15.5899
rtibia 53.3786
rfoot -24.7127 -17.3903
rtoes 3.70661
lfemur -75.1831 26.6805 -37.8498
ltibia 112.181
lfoot -16.2086 -6.95947
ltoes -18.485
407
root 2.13361 28.3667 0.656863 -169.665 -14.7876 169.191
lowerback 31.48 -1.84418 -2.49107
upperback 4.39512 -4.95195 -3.60352
thorax -11.6064 -2.72834 -0.513875
lowerneck -16.8471 -2.27573 -7.12074
upperneck 0.634807 -2.32912 6.00019
head 3.00819 -1.07665 2.81137
rclavicle 1.37658e-014 5.09883e-014
rhumerus -6.24662 7.74863 -77.7065
rradius 115.57
rwrist -3.68159
rhand -38.4041 -8.20521
rfingers 7.12502
rthumb -11.429 -37.8737
lclavicle 1.37658e-014 5.09883e-014
lhumerus -5.35558 -13.8285 77.1963
lradius 75.9711
lwrist 13.336
lhand -28.5559 4.44204
lfingers 7.12502
lthumb -1.92276 34.4131
rfemur -34.5523 6.0039 15.6024
rtibia 52.615
rfoot -24.1968 -17.6735
rtoes 3.4039
lfemur -76.0881 26.4776 -38.0658
ltibia 112.443
lfoot -16.2476 -9.37206
ltoes -16.2102
408
root 2.15148 28.4086 0.648518 -169.314 -14.7362 169.362
lowerback 30.8852 -1.75168 -2.55454
upperback 4.31616 -4.77955 -3.55494
thorax -11.4324 -2.63513 -0.519695
lowerneck -16.5562 -2.17795 -6.96859
upperneck 0.360926 -2.23387 5.80499
head 2.86945 -1.04337 2.73528
rclavicle 4.50744e-014 4.02539e-015
rhumerus -6.56644 7.56434 -77.7421
rradius 115.122
rwrist -3.1945
rhand -38.1639 -7.14883
rfingers 7.12502
rthumb -11.1973 -36.83
lclavicle 4.50744e-014 4.02539e-015
lhumerus -5.23591 -14.1432 77.1963
lradius 75.2898
lwrist 13.3545
lhand -28.831 4.07154
lfingers 7.12502
lthumb -2.18853 34.0401
rfemur -34.6273 6.43449 15.7251
rtibia 51.9254
rfoot -23.6047 -18.0935
rtoes 2.78975
lfemur -77.4886 26.4111 -38.3368
ltibia 112.714
lfoot -15.9012 -10.2251
ltoes -15.0493
